<svg width="8" height="14" viewBox="0 0 8 14" fill="none" xmlns="http://www.w3.org/2000/svg">
<path d="M7.54023 6.29004L1.88023 0.640037C1.78726 0.546308 1.67666 0.471914 1.5548 0.421145C1.43294 0.370377 1.30224 0.344238 1.17023 0.344238C1.03821 0.344238 0.907509 0.370377 0.785649 0.421145C0.66379 0.471914 0.553189 0.546308 0.460226 0.640037C0.273975 0.827399 0.169434 1.08085 0.169434 1.34504C0.169434 1.60922 0.273975 1.86267 0.460226 2.05004L5.41023 7.05004L0.460226 12C0.273975 12.1874 0.169434 12.4409 0.169434 12.705C0.169434 12.9692 0.273975 13.2227 0.460226 13.41C0.552841 13.5045 0.663286 13.5797 0.785161 13.6312C0.907036 13.6827 1.03792 13.7095 1.17023 13.71C1.30253 13.7095 1.43342 13.6827 1.55529 13.6312C1.67717 13.5797 1.78761 13.5045 1.88023 13.41L7.54023 7.76004C7.64173 7.66639 7.72274 7.55274 7.77815 7.42624C7.83355 7.29974 7.86216 7.16314 7.86216 7.02504C7.86216 6.88693 7.83355 6.75033 7.77815 6.62383C7.72274 6.49733 7.64173 6.38368 7.54023 6.29004Z" fill="#201F25"/>
</svg>
